<?xml version="1.0" standalone="no"?>
<!DOCTYPE svg PUBLIC "-//W3C//DTD SVG 20010904//EN"
 "http://www.w3.org/TR/2001/REC-SVG-20010904/DTD/svg10.dtd">
<svg version="1.0" xmlns="http://www.w3.org/2000/svg"
 width="371.000000pt" height="371.000000pt" viewBox="0 0 371.000000 371.000000"
 preserveAspectRatio="xMidYMid meet">
<metadata>
Created by potrace 1.14, written by Peter Selinger 2001-2017
</metadata>
<g transform="translate(0.000000,371.000000) scale(0.100000,-0.100000)"
fill="#000000" stroke="none">
<path d="M1606 3695 c-403 -56 -772 -240 -1062 -529 -289 -290 -464 -641 -527
-1056 -15 -96 -16 -427 -2 -515 66 -412 246 -769 529 -1050 235 -233 515 -397
817 -479 111 -30 134 -34 279 -55 64 -10 401 -8 450 2 14 3 48 8 75 12 76 10
240 54 340 92 645 244 1100 817 1190 1497 17 129 17 341 -1 480 -80 640 -498
1198 -1095 1461 -141 62 -343 120 -489 140 -97 13 -406 13 -504 0z"/>
</g>
</svg>
